<?xml version="1.0" encoding="UTF-8"?>
<svg version="1.1" xmlns="http://www.w3.org/2000/svg" width="225" height="225">
<path d="M0 0 C74.25 0 148.5 0 225 0 C225 74.25 225 148.5 225 225 C150.75 225 76.5 225 0 225 C0 150.75 0 76.5 0 0 Z " fill="#274D4A" transform="translate(0,0)"/>
<path d="M0 0 C3.93407892 2.92534073 6.94136186 6.0388389 10 9.875 C13.79590805 14.63270907 17.81415528 19.08291165 22 23.5 C26.81316402 28.58758201 31.3550122 33.78118629 35.7265625 39.2578125 C38.37342432 42.45041902 41.16569459 45.47437898 44 48.5 C48.43307028 53.2338062 52.63525161 58.07134333 56.62490845 63.19169617 C58.91093422 66.03233507 58.91093422 66.03233507 61.58041382 68.27815247 C66.69943437 72.93993637 69.48591484 76.38160319 70.06103897 83.27699089 C70.19266806 87.383876 70.10557393 91.46844869 69.9765625 95.57421875 C69.96182645 97.15153461 69.95164513 98.72889967 69.94604492 100.30627441 C69.89399813 106.10077078 69.75438341 111.8942145 69.625 117.6875 C69.41875 130.660625 69.2125 143.63375 69 157 C36.66 157 4.32 157 -29 157 C-29 156.01 -29 155.02 -29 154 C-25.7 154 -22.4 154 -19 154 C-19 134.86 -19 115.72 -19 96 C-22.3 96 -25.6 96 -29 96 C-29 95.01 -29 94.02 -29 93 C-25.7 93 -22.4 93 -19 93 C-19.04640625 91.82824219 -19.0928125 90.65648438 -19.140625 89.44921875 C-19.44685895 78.519112 -19.49059301 68.62446262 -11.8125 60 C-6.22905207 55.03561239 0.43541225 53.41920067 7.80078125 53.71484375 C14.39052259 54.56928623 18.61164407 56.94674165 23 62 C23.33 62.33 23.66 62.66 24 63 C24.375 65.75 24.375 65.75 24 69 C21.827365 71.57285724 20.02006162 73.48996919 17 75 C14.6670134 75.04022391 12.33293334 75.04320247 10 75 C9.67 74.34 9.34 73.68 9 73 C9.804375 72.649375 10.60875 72.29875 11.4375 71.9375 C14.3328046 70.1584039 14.3328046 70.1584039 14.9375 66.5625 C15.03196312 62.39993605 15.03196312 62.39993605 13 59 C8.77515906 56.48152031 4.80636899 56.17676379 0 57 C-2.99128014 58.55769983 -5.45350104 60.48481224 -6.63647461 63.76464844 C-7.11206945 66.68912551 -7.22217003 69.55391521 -7.31640625 72.515625 C-7.37924805 74.39121094 -7.37924805 74.39121094 -7.44335938 76.3046875 C-7.48267578 77.60664062 -7.52199219 78.90859375 -7.5625 80.25 C-7.62727539 82.22613281 -7.62727539 82.22613281 -7.69335938 84.2421875 C-7.79941854 87.49466854 -7.90021153 90.74732053 -8 94 C-2.72 94 2.56 94 8 94 C8 94.66 8 95.32 8 96 C2.72 96 -2.56 96 -8 96 C-8 115.14 -8 134.28 -8 154 C16.42 154 40.84 154 66 154 C66.12375 141.934375 66.2475 129.86875 66.375 117.4375 C66.45024902 113.65853271 66.52549805 109.87956543 66.60302734 105.98608398 C67.42204222 87.49545136 67.42204222 87.49545136 60.1210022 71.26295471 C57.77299212 69.00418359 55.35374525 67.03639161 52.66374207 65.20057678 C50.19215133 63.41704644 48.32813942 61.19753596 46.375 58.875 C41.49584052 53.41863866 36.5249002 48.04917073 31.55273438 42.67773438 C27.52349664 38.32413033 23.50007752 33.9651485 19.47900391 29.60400391 C18.48676507 28.52790467 17.49424856 27.45206141 16.50146484 26.37646484 C11.23425233 20.66729677 6.00024346 14.94623547 1 9 C-2.72854226 12.68074044 -6.32843062 16.45657078 -9.875 20.3125 C-10.40673828 20.89008057 -10.93847656 21.46766113 -11.48632812 22.06274414 C-16.35727427 27.36710933 -21.09615427 32.77051669 -25.7734375 38.24609375 C-26.8071716 39.45583177 -27.84102914 40.66546433 -28.875 41.875 C-29.39344482 42.48158447 -29.91188965 43.08816895 -30.44604492 43.71313477 C-34.22811972 48.12703714 -38.08270097 52.46818383 -41.98828125 56.7734375 C-44.41398637 59.4581985 -46.79017372 62.18353315 -49.1640625 64.9140625 C-52.12690851 68.28035988 -55.15552169 71.58723222 -58.1796875 74.8984375 C-61.38746467 78.60183689 -61.16785675 81.68621902 -61.20532227 86.38720703 C-61.22017166 87.52881287 -61.22017166 87.52881287 -61.23532104 88.69348145 C-61.26696678 91.21489324 -61.29170557 93.73632388 -61.31640625 96.2578125 C-61.33697313 98.00373836 -61.35796953 99.74965922 -61.37937927 101.49557495 C-61.43462746 106.09539742 -61.4840246 110.69526503 -61.53222656 115.29516602 C-61.58242155 119.98718289 -61.63811805 124.67913405 -61.69335938 129.37109375 C-61.80097454 138.58067306 -61.90241204 147.79030937 -62 157 C-64.97 157 -67.94 157 -71 157 C-71.25595666 146.7771404 -71.45086057 136.55505442 -71.56993389 126.32963181 C-71.62711392 121.58024921 -71.70453258 116.83307344 -71.82983398 112.08496094 C-71.95021343 107.49411947 -72.01529865 102.90538645 -72.04364967 98.31308746 C-72.06382551 96.56986567 -72.10322711 94.826747 -72.16303062 93.08443451 C-72.65854798 78.03625023 -72.65854798 78.03625023 -67.17926502 71.64735794 C-64.90196842 69.29375708 -62.47646025 67.14086408 -60 65 C-58.68490252 63.626595 -57.383109 62.23997639 -56.109375 60.828125 C-54.98984948 59.63516685 -53.87006351 58.44245305 -52.75 57.25 C-47.54614298 51.69640864 -47.54614298 51.69640864 -42.5 46 C-37.46733046 40.15805697 -32.11754322 34.59664084 -26.84619141 28.97119141 C-16.48637341 17.93513391 -16.48637341 17.93513391 -6.43359375 6.62109375 C-4.38701426 4.30684173 -2.21735523 2.15016265 0 0 Z " fill="#ECF5F5" transform="translate(115,24)"/>
<path d="M0 0 C2.9375 2.625 2.9375 2.625 5 5 C5.495 5.495 5.495 5.495 6 6 C6.375 8.75 6.375 8.75 6 12 C3.827365 14.57285724 2.02006162 16.48996919 -1 18 C-3.3329866 18.04022391 -5.66706666 18.04320247 -8 18 C-8.495 17.01 -8.495 17.01 -9 16 C-8.195625 15.649375 -7.39125 15.29875 -6.5625 14.9375 C-3.6671954 13.1584039 -3.6671954 13.1584039 -3.0625 9.5625 C-2.96803688 5.39993605 -2.96803688 5.39993605 -5 2 C-9.22484094 -0.51847969 -13.19363101 -0.82323621 -18 0 C-20.99128014 1.55769983 -23.45350104 3.48481224 -24.63647461 6.76464844 C-25.11206945 9.68912551 -25.22217003 12.55391521 -25.31640625 15.515625 C-25.35830078 16.76601562 -25.40019531 18.01640625 -25.44335938 19.3046875 C-25.48267578 20.60664062 -25.52199219 21.90859375 -25.5625 23.25 C-25.60568359 24.56742188 -25.64886719 25.88484375 -25.69335938 27.2421875 C-25.79941854 30.49466854 -25.90021153 33.74732053 -26 37 C-20.72 37 -15.44 37 -10 37 C-10 37.66 -10 38.32 -10 39 C-15.28 39 -20.56 39 -26 39 C-26 58.14 -26 77.28 -26 97 C-1.58 97 22.84 97 48 97 C48 79.18 48 61.36 48 43 C48.495 44.98 48.495 44.98 49 47 C49.66 47 50.32 47 51 47 C51 64.49 51 81.98 51 100 C18.66 100 -13.68 100 -47 100 C-47 99.01 -47 98.02 -47 97 C-43.7 97 -40.4 97 -37 97 C-37 77.86 -37 58.72 -37 39 C-40.3 39 -43.6 39 -47 39 C-47 38.01 -47 37.02 -47 36 C-43.7 36 -40.4 36 -37 36 C-37.04640625 34.82824219 -37.0928125 33.65648437 -37.140625 32.44921875 C-37.44685895 21.519112 -37.49059301 11.62446262 -29.8125 3 C-21.61436121 -4.28917671 -9.53090705 -5.29494836 0 0 Z " fill="#F1F7F7" transform="translate(133,81)"/>
<path d="M0 0 C0.66 0.66 1.32 1.32 2 2 C0.92370723 4.83749912 0.25694158 5.8550586 -2.4375 7.375 C-5.80238853 9.50883175 -6.52458901 11.31143101 -8 15 C-8.23697713 17.70358921 -8.32533802 20.15032407 -8.2487793 22.84130859 C-8.23946381 23.60296326 -8.23014832 24.36461792 -8.22055054 25.14935303 C-8.18636536 27.64951583 -8.13044191 30.1486815 -8.07421875 32.6484375 C-8.04616583 34.3886202 -8.01947754 36.12882538 -7.99409485 37.86904907 C-7.92382517 42.43628982 -7.83507816 47.00298989 -7.74243164 51.56982422 C-7.65107377 56.2351662 -7.57725993 60.90078246 -7.50195312 65.56640625 C-7.35176933 74.71129021 -7.18205671 83.85569891 -7 93 C-9.97 93 -12.94 93 -16 93 C-16.02517981 85.90975183 -16.04308053 78.81953105 -16.05493164 71.72924805 C-16.05988484 69.32950384 -16.06664922 66.92976252 -16.07543945 64.5300293 C-16.13438887 47.99298482 -15.81094341 31.51798113 -15 15 C-14.36320312 14.88269531 -13.72640625 14.76539062 -13.0703125 14.64453125 C-12.38710938 14.43183594 -11.70390625 14.21914062 -11 14 C-9.80161791 11.67145537 -9.80161791 11.67145537 -9 9 C-8.0625 6.75 -8.0625 6.75 -7 5 C-6.01 4.67 -5.02 4.34 -4 4 C-3.67 3.01 -3.34 2.02 -3 1 C-2.01 0.67 -1.02 0.34 0 0 Z " fill="#F8FDFD" transform="translate(60,88)"/>
<path d="M0 0 C0.66 0 1.32 0 2 0 C0.38385352 3.92359261 -2.31337987 6.71382175 -5.1875 9.75 C-6.18033112 10.81580706 -7.17251794 11.88221467 -8.1640625 12.94921875 C-8.6477832 13.46790527 -9.13150391 13.9865918 -9.62988281 14.52099609 C-11.47110229 16.50854199 -13.27336685 18.52802159 -15.0625 20.5625 C-15.58972656 21.16191406 -16.11695313 21.76132813 -16.66015625 22.37890625 C-20.02463745 26.44963424 -20.26505636 28.83295742 -20.31884766 34.04174805 C-20.32889328 34.75419678 -20.3389389 35.46664551 -20.34928894 36.20068359 C-20.38016687 38.55435381 -20.39716862 40.90791005 -20.4140625 43.26171875 C-20.43277047 44.8941191 -20.4523436 46.52650974 -20.4727478 48.15888977 C-20.52411433 52.45454185 -20.56371577 56.7502253 -20.60089111 61.04602051 C-20.64090248 65.42984811 -20.69200788 69.81354471 -20.7421875 74.19726562 C-20.8390003 82.79808766 -20.92338785 91.39897443 -21 100 C-21.33 100 -21.66 100 -22 100 C-22.20044559 90.45550804 -22.38413592 80.9108821 -22.54658794 71.36566734 C-22.6225487 66.93318701 -22.70422384 62.50096724 -22.79907227 58.06884766 C-22.89043616 53.78964088 -22.96664046 49.51040534 -23.03244972 45.23073196 C-23.06016865 43.60001218 -23.09330028 41.96937491 -23.13199425 40.33887863 C-23.18536287 38.05061127 -23.2192761 35.76280374 -23.2487793 33.47412109 C-23.27320602 32.17284271 -23.29763275 30.87156433 -23.32279968 29.53085327 C-22.96733901 25.642747 -22.10475706 23.27376981 -20 20 C-16.8125 18.625 -16.8125 18.625 -14 18 C-13.7763932 15.0745356 -13.7763932 15.0745356 -15 13 C-19.16850256 15.92028135 -19.16850256 15.92028135 -21.75 20.0625 C-21.8325 20.701875 -21.915 21.34125 -22 22 C-23.34051602 25.2555389 -23.92607673 25.95071782 -27 28 C-27.66 27.67 -28.32 27.34 -29 27 C-29 35.25 -29 43.5 -29 52 C-29.33 52 -29.66 52 -30 52 C-32.00531603 25.71493444 -32.00531603 25.71493444 -26.26098633 19.00488281 C-23.96754241 16.81556843 -21.5487158 14.88305958 -19 13 C-18.31421875 12.26523438 -17.6284375 11.53046875 -16.921875 10.7734375 C-14.69590583 8.71939277 -13.46225809 8.43278226 -10.5 8.0625 C-6.87207972 7.4131678 -6.20336375 7.21900711 -3.5625 4.375 C-3.046875 3.59125 -2.53125 2.8075 -2 2 C-1.34 2 -0.68 2 0 2 C0 1.34 0 0.68 0 0 Z " fill="#CBD7D7" transform="translate(74,76)"/>
<path d="M0 0 C0.495 1.98 0.495 1.98 1 4 C1.66 4 2.32 4 3 4 C3 21.16 3 38.32 3 56 C-22.41 55.67 -47.82 55.34 -74 55 C-74 54.67 -74 54.34 -74 54 C-49.58 54 -25.16 54 0 54 C0 36.18 0 18.36 0 0 Z " fill="#C6DBDA" transform="translate(181,124)"/>
<path d="M0 0 C0.33 0 0.66 0 1 0 C1.33 16.83 1.66 33.66 2 51 C27.08 51.33 52.16 51.66 78 52 C78.33 52.66 78.66 53.32 79 54 C60.82765289 54.08387436 42.66887096 53.83814162 24.5 53.5 C21.81511199 53.45138374 19.13021247 53.40341943 16.4453125 53.35546875 C9.96349944 53.23922228 3.48173346 53.12059941 -3 53 C-2.67657623 52.44213806 -2.35315247 51.88427612 -2.01992798 51.30950928 C-0.86998971 48.7056067 -0.7250242 46.8848984 -0.68115234 44.04785156 C-0.66128265 43.06713684 -0.64141296 42.08642212 -0.62094116 41.07598877 C-0.60938995 40.02481873 -0.59783875 38.97364868 -0.5859375 37.890625 C-0.56657135 36.80867859 -0.5472052 35.72673218 -0.5272522 34.61199951 C-0.46749763 31.15807974 -0.42108703 27.70412656 -0.375 24.25 C-0.33681647 21.90753759 -0.29776452 19.56508916 -0.2578125 17.22265625 C-0.16179944 11.48189501 -0.07673973 5.74104947 0 0 Z " fill="#EEFEFE" transform="translate(105,127)"/>
<path d="M0 0 C0.33 0 0.66 0 1 0 C1 19.8 1 39.6 1 60 C21.79 60 42.58 60 64 60 C64 60.33 64 60.66 64 61 C39.58 61 15.16 61 -10 61 C-10 60.01 -10 59.02 -10 58 C-6.7 58 -3.4 58 0 58 C0 38.86 0 19.72 0 0 Z " fill="#BED0CF" transform="translate(96,120)"/>
<path d="M0 0 C6.07177467 2.73797316 11.49430229 6.64369336 14 13 C15.28527878 21.9116332 14.61652486 31.04900757 14 40 C13.34 40 12.68 40 12 40 C11.12581675 37.02794621 10.93869167 34.52518482 11.0703125 31.4375 C11.45906213 19.46400863 11.45906213 19.46400863 5.99755859 9.24023438 C3.75839815 7.01158642 1.47325707 4.96801181 -1 3 C-0.67 2.01 -0.34 1.02 0 0 Z " fill="#E1F2F2" transform="translate(170,88)"/>
<path d="M0 0 C0.66 0.33 1.32 0.66 2 1 C2 1.66 2 2.32 2 3 C1.34 3 0.68 3 0 3 C-0.33 4.65 -0.66 6.3 -1 8 C-1.99 8 -2.98 8 -4 8 C-4 8.66 -4 9.32 -4 10 C-6.69748892 12.99720992 -9.1351521 15.67145853 -13 17 C-15.75 17.125 -15.75 17.125 -18 17 C-16.36048096 12.57437019 -12.9695684 9.8993412 -9.5625 6.8125 C-8.97662109 6.26658203 -8.39074219 5.72066406 -7.78710938 5.15820312 C-3.38926035 1.12975345 -3.38926035 1.12975345 0 0 Z " fill="#F0F7F6" transform="translate(78,68)"/>
<path d="M0 0 C0.66 0.33 1.32 0.66 2 1 C1 3 0 5 -1 7 C-1.28875 7.66 -1.5775 8.32 -1.875 9 C-3 11 -3 11 -6 13 C-6.66 12.67 -7.32 12.34 -8 12 C-8 20.25 -8 28.5 -8 37 C-8.33 37 -8.66 37 -9 37 C-9.2641473 32.70952532 -9.42211703 28.42116443 -9.5625 24.125 C-9.63791016 22.92101562 -9.71332031 21.71703125 -9.79101562 20.4765625 C-9.96486124 13.36820864 -9.31173947 9.50262719 -4.46484375 4.1171875 C-3.00761862 2.71185967 -1.529163 1.32669209 0 0 Z " fill="#D8E2E2" transform="translate(53,91)"/>
<path d="M0 0 C0.33 0 0.66 0 1 0 C1 8.25 1 16.5 1 25 C0.34 25 -0.32 25 -1 25 C-2.29310663 20.455746 -2.18399747 16.0683937 -2.1875 11.375 C-2.19974609 10.50359375 -2.21199219 9.6321875 -2.22460938 8.734375 C-2.22654297 7.90164062 -2.22847656 7.06890625 -2.23046875 6.2109375 C-2.23457764 5.45087402 -2.23868652 4.69081055 -2.24291992 3.90771484 C-2 2 -2 2 0 0 Z " fill="#F1FEFE" transform="translate(183,103)"/>
<path d="M0 0 C4.70478962 3.42166518 8.27653164 7.57905197 12 12 C8.25373781 13.11353866 6.52456128 12.80746732 3 11 C0.10020718 9.03228344 -0.0153491 7.92581266 -0.75 4.375 C-0.8325 3.26125 -0.915 2.1475 -1 1 C-0.67 0.67 -0.34 0.34 0 0 Z " fill="#E3EFEE" transform="translate(131,42)"/>
<path d="M0 0 C4.76346081 4.51275234 6.92539529 7.55237175 8 14 C4.89557969 12.6095501 2.6343557 10.98428402 0.1875 8.625 C-0.43769531 8.03976563 -1.06289062 7.45453125 -1.70703125 6.8515625 C-3 5 -3 5 -2.82421875 2.8359375 C-2 1 -2 1 0 0 Z " fill="#EDF4F4" transform="translate(124,34)"/>
<path d="M0 0 C0.66 0.33 1.32 0.66 2 1 C2 1.66 2 2.32 2 3 C1.34 3 0.68 3 0 3 C-0.33 4.65 -0.66 6.3 -1 8 C-1.99 8 -2.98 8 -4 8 C-4 8.66 -4 9.32 -4 10 C-4.99 10.33 -5.98 10.66 -7 11 C-7.8125 8.8125 -7.8125 8.8125 -8 6 C-5.47494414 2.91382062 -3.80132605 1.26710868 0 0 Z " fill="#FAFCFC" transform="translate(78,68)"/>
<path d="M0 0 C0.33 0 0.66 0 1 0 C1.02888146 3.31248187 1.04675799 6.62493167 1.0625 9.9375 C1.07087891 10.88302734 1.07925781 11.82855469 1.08789062 12.80273438 C1.09111328 13.70185547 1.09433594 14.60097656 1.09765625 15.52734375 C1.10289307 16.35999756 1.10812988 17.19265137 1.11352539 18.05053711 C1 20 1 20 0 21 C-1.68608966 21.07205511 -3.37500659 21.08386068 -5.0625 21.0625 C-5.98160156 21.05347656 -6.90070313 21.04445313 -7.84765625 21.03515625 C-8.55792969 21.02355469 -9.26820312 21.01195313 -10 21 C-10 20.01 -10 19.02 -10 18 C-6.7 18 -3.4 18 0 18 C0 12.06 0 6.12 0 0 Z " fill="#ADBFC0" transform="translate(96,99)"/>
<path d="M0 0 C0.66 0 1.32 0 2 0 C0.42219077 3.71045247 -1.90703248 6.29906384 -4.625 9.25 C-5.44226563 10.14203125 -6.25953125 11.0340625 -7.1015625 11.953125 C-7.72804688 12.62859375 -8.35453125 13.3040625 -9 14 C-9.66 13.34 -10.32 12.68 -11 12 C-9.52742891 8.11776713 -7.52050292 7.02428918 -4 5 C-3.34 4.01 -2.68 3.02 -2 2 C-1.34 2 -0.68 2 0 2 C0 1.34 0 0.68 0 0 Z " fill="#E4EFED" transform="translate(74,76)"/>
<path d="M0 0 C3.63 0 7.26 0 11 0 C11 0.99 11 1.98 11 3 C7.37 3 3.74 3 0 3 C0 2.01 0 1.02 0 0 Z " fill="#B9D3D3" transform="translate(86,178)"/>
<path d="M0 0 C0.66 0 1.32 0 2 0 C0.55575365 3.23861303 -1.25772247 5.61969163 -3.625 8.25 C-4.25664063 8.95640625 -4.88828125 9.6628125 -5.5390625 10.390625 C-6.02117188 10.92171875 -6.50328125 11.4528125 -7 12 C-7.66 11.34 -8.32 10.68 -9 10 C-7.875 7.125 -7.875 7.125 -6 4 C-2.8125 2.625 -2.8125 2.625 0 2 C0 1.34 0 0.68 0 0 Z " fill="#E6F1F0" transform="translate(60,92)"/>
<path d="M0 0 C2.86207152 1.28299758 5.0245088 2.530636 7 5 C7 5.99 7 6.98 7 8 C3.20411134 7.45773019 1.52788007 5.79872437 -1 3 C-0.67 2.01 -0.34 1.02 0 0 Z " fill="#EAF7F7" transform="translate(170,88)"/>
<path d="M0 0 C0.99 0.33 1.98 0.66 3 1 C3.75 3.75 3.75 3.75 4 7 C2.0625 9.375 2.0625 9.375 0 11 C-0.625 9.1875 -0.625 9.1875 -1 7 C-0.34 6.01 0.32 5.02 1 4 C0.34 3.67 -0.32 3.34 -1 3 C-0.34 3 0.32 3 1 3 C0.67 2.01 0.34 1.02 0 0 Z " fill="#31514F" transform="translate(68,64)"/>
<path d="M0 0 C0.33 0.99 0.66 1.98 1 3 C1.66 3 2.32 3 3 3 C3 3.99 3 4.98 3 6 C2.34 6 1.68 6 1 6 C1 6.99 1 7.98 1 9 C1.99 9.33 2.98 9.66 4 10 C3.67 10.66 3.34 11.32 3 12 C2.01 12 1.02 12 0 12 C-0.19401633 10.18818595 -0.38004375 8.37551468 -0.5625 6.5625 C-0.66691406 5.55316406 -0.77132812 4.54382813 -0.87890625 3.50390625 C-0.91886719 2.67761719 -0.95882812 1.85132812 -1 1 C-0.67 0.67 -0.34 0.34 0 0 Z " fill="#214440" transform="translate(139,81)"/>
<path d="M0 0 C0.33 0.99 0.66 1.98 1 3 C-1.14327284 6.21490927 -2.69521128 7.14609413 -6 9 C-6.99 9.66 -7.98 10.32 -9 11 C-7.59155282 7.78475695 -5.89655214 5.67816132 -3.375 3.25 C-2.74335937 2.63640625 -2.11171875 2.0228125 -1.4609375 1.390625 C-0.73777344 0.70226563 -0.73777344 0.70226563 0 0 Z " fill="#DEEAE6" transform="translate(79,63)"/>
<path d="M0 0 C3.16115776 1.36983503 3.9927092 1.9890638 6 5 C4.02 5.99 4.02 5.99 2 7 C0.4375 5.1875 0.4375 5.1875 -1 3 C-0.67 2.01 -0.34 1.02 0 0 Z " fill="#DAE6E8" transform="translate(166,83)"/>
<path d="M0 0 C0.99 0.33 1.98 0.66 3 1 C2.34 1.66 1.68 2.32 1 3 C0.01 4.485 0.01 4.485 -1 6 C-1.99 6 -2.98 6 -4 6 C-4 6.66 -4 7.32 -4 8 C-4.66 8 -5.32 8 -6 8 C-4.55746343 4.63408134 -2.66735273 2.48952921 0 0 Z " fill="#E7F2F0" transform="translate(106,82)"/>
<path d="M0 0 C0.99 0.33 1.98 0.66 3 1 C3 1.66 3 2.32 3 3 C4.32 3.33 5.64 3.66 7 4 C6.01 4.33 5.02 4.66 4 5 C3.67 5.66 3.34 6.32 3 7 C1.5 5.75 1.5 5.75 0 4 C0 2.68 0 1.36 0 0 Z " fill="#E3EBED" transform="translate(142,58)"/>
<path d="M0 0 C1.65 1.65 3.3 3.3 5 5 C3 6 3 6 -0.125 5.0625 C-1.07375 4.711875 -2.0225 4.36125 -3 4 C-2.01 2.68 -1.02 1.36 0 0 Z " fill="#405A58" transform="translate(115,32)"/>
<path d="M0 0 C1.32 0 2.64 0 4 0 C4.1875 2.375 4.1875 2.375 4 5 C3.01 5.66 2.02 6.32 1 7 C0.67 4.69 0.34 2.38 0 0 Z " fill="#325450" transform="translate(77,57)"/>
<path d="M0 0 C0.99 0 1.98 0 3 0 C3 1.98 3 3.96 3 6 C2.34 6 1.68 6 1 6 C0.67 6.66 0.34 7.32 0 8 C0 5.36 0 2.72 0 0 Z " fill="#365354" transform="translate(53,173)"/>
<path d="M0 0 C2.88575819 0.39803561 3.82189513 0.79009069 5.75 3.0625 C6.1625 3.701875 6.575 4.34125 7 5 C5.68 5 4.36 5 3 5 C2.67 5.66 2.34 6.32 2 7 C2 5.68 2 4.36 2 3 C1.34 2.67 0.68 2.34 0 2 C0 1.34 0 0.68 0 0 Z " fill="#37524F" transform="translate(167,91)"/>
<path d="M0 0 C1.65 0 3.3 0 5 0 C3.6875 2.5 3.6875 2.5 2 5 C1.01 5 0.02 5 -1 5 C-0.67 3.35 -0.34 1.7 0 0 Z " fill="#FCFBFD" transform="translate(80,63)"/>
<path d="M0 0 C0.66 0.33 1.32 0.66 2 1 C0.02 3.97 0.02 3.97 -2 7 C-2.66 6.67 -3.32 6.34 -4 6 C-2.84826645 3.53199953 -1.95216435 1.95216435 0 0 Z " fill="#415856" transform="translate(58,97)"/>
<path d="M0 0 C1.093125 0.226875 2.18625 0.45375 3.3125 0.6875 C-0.0894487 2.78100689 -2.74022412 2.86692163 -6.6875 2.6875 C-4.58035839 -0.41123767 -3.86755884 -0.32775922 0 0 Z " fill="#375655" transform="translate(112.6875,77.3125)"/>
<path d="M0 0 C-0.66 1.32 -1.32 2.64 -2 4 C-5 3 -5 3 -7 0 C-3.86650268 -1.04449911 -3.01031744 -0.93423645 0 0 Z " fill="#365857" transform="translate(130,75)"/>
<path d="M0 0 C0.99 0.99 1.98 1.98 3 3 C1.68 3.99 0.36 4.98 -1 6 C-1.66 4.68 -2.32 3.36 -3 2 C-2.01 2 -1.02 2 0 2 C0 1.34 0 0.68 0 0 Z " fill="#DAEAEB" transform="translate(156,70)"/>
</svg>
